<svg xmlns="http://www.w3.org/2000/svg" viewBox="0 0 335.6 118.69"><defs><style>.cls-1{fill:none;}.cls-2{fill:#326130;}.cls-3{fill:#ffcb2b;}.cls-4{fill:#fff;}</style></defs><g id="Layer_2" data-name="Layer 2"><g id="Logo"><path class="cls-1" d="M93.07,60.57A14.61,14.61,0,0,0,78.48,75.19q0,5,1.11,6.43L99.5,61.68Q98.06,60.57,93.07,60.57Z"/><path class="cls-1" d="M190.2,67.87V23.53h-9.54V57.24H180A10.64,10.64,0,0,1,190.2,67.87Z"/><rect class="cls-1" x="148.34" y="23.53" width="9.55" height="33.68"/><path class="cls-1" d="M283.24,46q-9.18,0-16.09,7.14V23.53h-9.54V97.3h9.54V91.4q6.92,7.14,16.09,7.14a26.26,26.26,0,0,0,26.23-26.28A26.26,26.26,0,0,0,283.24,46Zm11.64,37.89a16.55,16.55,0,0,1-23.31,0A15.34,15.34,0,0,1,267.15,76V68.58a15.36,15.36,0,0,1,4.42-7.93A16.48,16.48,0,0,1,299.7,72.26,15.79,15.79,0,0,1,294.88,83.88Z"/><path class="cls-2" d="M283.24,55.81a15.9,15.9,0,0,0-11.67,4.84,15.36,15.36,0,0,0-4.42,7.93V76a15.34,15.34,0,0,0,4.42,7.88,16.55,16.55,0,0,0,23.31,0,16.4,16.4,0,0,0,0-23.23A15.8,15.8,0,0,0,283.24,55.81Z"/><path class="cls-2" d="M312.38,0H145.43a23.21,23.21,0,0,0-23.21,23.21V95.47a23.22,23.22,0,0,0,23.21,23.22h167A23.23,23.23,0,0,0,335.6,95.47V23.21A23.22,23.22,0,0,0,312.38,0ZM157.88,97.3h-9.54v0h9.54Zm.88-30.52V97.25H148.34V23.53h9.55V57.21h21.65c.15,0,.29,0,.43,0h.69V23.53h9.54V97.25H179.84V66.78ZM190.2,97.3h-9.54v0h9.54Zm53.57-18.58a18.91,18.91,0,0,1-19.64,19.22q-9,0-14.47-5.48A19.11,19.11,0,0,1,204,78.72V49.86h9.59V78.35a9.52,9.52,0,0,0,3,7.05,10.18,10.18,0,0,0,7.47,2.95,9.91,9.91,0,0,0,7.12-2.92,9.51,9.51,0,0,0,3-7.08V49.86h9.54Zm58,12.12a25.19,25.19,0,0,1-18.55,7.7q-9.18,0-16.09-7.14v5.9h-9.54V23.53h9.54v29.6Q274.07,46,283.24,46a26.26,26.26,0,0,1,26.23,26.27A25.34,25.34,0,0,1,301.79,90.84Z"/><polygon class="cls-3" points="29 68.64 7.74 31.9 0 31.9 0 97.44 8.48 97.44 8.48 50.08 29 85.48 49.44 50.08 49.44 97.44 57.92 97.44 57.92 31.9 50.18 31.9 29 68.64"/><path class="cls-3" d="M103.43,85.52a14.19,14.19,0,0,1-10.36,4.26q-5.62,0-7.75-1.89l22.33-22.32,4.26-4.3c-1.29-1.45-2.06-2.31-2.34-2.58-.65-.66-1.32-1.27-2-1.85a23.39,23.39,0,0,0-31,1.85,23.33,23.33,0,0,0,0,33,23.29,23.29,0,0,0,33,0A54.82,54.82,0,0,0,114.08,86l-8.48-3C104.51,84.29,103.78,85.13,103.43,85.52Zm-25-10.33A14.61,14.61,0,0,1,93.07,60.57q5,0,6.43,1.11L79.59,81.62Q78.48,80.15,78.48,75.19Z"/><rect class="cls-4" x="148.34" y="97.25" width="9.54" height="0.05"/><rect class="cls-4" x="180.66" y="97.25" width="9.54" height="0.05"/><path class="cls-3" d="M190.2,97.25V67.87A10.64,10.64,0,0,0,180,57.24c-.14,0-.28,0-.43,0h-31.2v40h10.42V66.78h21.08V97.25Z"/><path class="cls-3" d="M234.23,78.35a9.51,9.51,0,0,1-3,7.08,9.91,9.91,0,0,1-7.12,2.92,10.18,10.18,0,0,1-7.47-2.95,9.52,9.52,0,0,1-3-7.05V49.86H204V78.72a19.11,19.11,0,0,0,5.63,13.74q5.47,5.48,14.47,5.48a18.91,18.91,0,0,0,19.64-19.22V49.86h-9.54Z"/></g></g></svg>