<?xml version="1.0" standalone="no"?>
<!DOCTYPE svg PUBLIC "-//W3C//DTD SVG 20010904//EN"
 "http://www.w3.org/TR/2001/REC-SVG-20010904/DTD/svg10.dtd">
<svg version="1.0" xmlns="http://www.w3.org/2000/svg"
 width="1355.000000pt" height="476.000000pt" viewBox="0 0 1355.000000 476.000000"
 preserveAspectRatio="xMidYMid meet">

<g transform="translate(0.000000,476.000000) scale(0.100000,-0.100000)"
fill="#000000" stroke="none">
<path d="M490 2690 c6 -11 13 -20 16 -20 2 0 0 9 -6 20 -6 11 -13 20 -16 20
-2 0 0 -9 6 -20z"/>
<path d="M2060 2690 c-6 -11 -8 -20 -6 -20 3 0 10 9 16 20 6 11 8 20 6 20 -3
0 -10 -9 -16 -20z"/>
<path d="M525 2630 c9 -16 18 -30 21 -30 2 0 -2 14 -11 30 -9 17 -18 30 -21
30 -2 0 2 -13 11 -30z"/>
<path d="M8665 2617 c-3 -12 -5 -261 -3 -552 3 -529 3 -530 26 -588 55 -136
221 -258 340 -248 8 1 -6 16 -29 34 -51 39 -101 118 -131 207 -20 61 -22 93
-29 490 -7 458 -12 497 -63 584 -23 40 -81 96 -99 96 -4 0 -9 -10 -12 -23z"/>
<path d="M9875 2628 c-3 -7 -6 -272 -8 -588 -3 -565 -3 -576 -26 -650 -41
-136 -95 -225 -201 -331 -78 -78 -110 -102 -180 -136 -137 -67 -190 -78 -380
-78 -127 1 -180 5 -229 19 -139 38 -268 114 -365 214 -28 28 -52 50 -54 47 -6
-6 63 -115 103 -162 47 -55 169 -154 237 -192 286 -161 721 -127 948 74 28 25
55 45 60 45 12 0 111 124 144 182 39 67 84 205 103 317 23 128 26 940 5 1036
-28 124 -136 263 -157 203z"/>
<path d="M560 2570 c6 -11 13 -20 16 -20 2 0 0 9 -6 20 -6 11 -13 20 -16 20
-2 0 0 -9 6 -20z"/>
<path d="M1990 2570 c-6 -11 -8 -20 -6 -20 3 0 10 9 16 20 6 11 8 20 6 20 -3
0 -10 -9 -16 -20z"/>
<path d="M630 2450 c6 -11 13 -20 16 -20 2 0 0 9 -6 20 -6 11 -13 20 -16 20
-2 0 0 -9 6 -20z"/>
<path d="M1880 2380 c-6 -11 -8 -20 -6 -20 3 0 10 9 16 20 6 11 8 20 6 20 -3
0 -10 -9 -16 -20z"/>
<path d="M4565 2330 c10 -11 20 -20 23 -20 3 0 -3 9 -13 20 -10 11 -20 20 -23
20 -3 0 3 -9 13 -20z"/>
<path d="M7590 2346 c0 -2 8 -10 18 -17 15 -13 16 -12 3 4 -13 16 -21 21 -21
13z"/>
<path d="M3758 2323 c6 -2 18 -2 25 0 6 3 1 5 -13 5 -14 0 -19 -2 -12 -5z"/>
<path d="M3943 2323 c9 -2 25 -2 35 0 9 3 1 5 -18 5 -19 0 -27 -2 -17 -5z"/>
<path d="M4050 2235 c-24 -25 -42 -45 -39 -45 3 0 25 20 49 45 24 25 42 45 39
45 -3 0 -25 -20 -49 -45z"/>
<path d="M7730 2179 c0 -40 0 -354 0 -696 l1 -623 -156 0 c-93 0 -155 -4 -155
-10 0 -21 68 -85 115 -106 94 -44 207 -25 283 49 17 17 32 35 32 40 0 4 9 28
20 52 11 25 24 85 30 137 12 120 13 694 0 818 -19 187 -63 310 -136 381 l-34
33 0 -75z"/>
<path d="M3489 2213 c-13 -16 -12 -17 4 -4 16 13 21 21 13 21 -2 0 -10 -8 -17
-17z"/>
<path d="M3424 2158 l-29 -33 33 29 c30 28 37 36 29 36 -2 0 -16 -15 -33 -32z"/>
<path d="M3986 1691 c-329 -329 -454 -461 -445 -466 8 -5 10 -4 6 0 -4 5 198
215 450 467 252 252 456 458 453 458 -3 0 -211 -206 -464 -459z"/>
<path d="M3885 2068 l-50 -53 53 50 c28 27 52 51 52 52 0 8 -9 -1 -55 -49z"/>
<path d="M3369 2093 c-13 -16 -12 -17 4 -4 16 13 21 21 13 21 -2 0 -10 -8 -17
-17z"/>
<path d="M6470 1476 l0 -604 -22 -6 c-13 -3 -80 -6 -150 -6 -143 0 -149 -4
-101 -61 64 -76 192 -100 288 -55 60 28 93 63 131 136 l29 55 6 385 c5 275 10
395 19 420 18 48 94 116 155 137 38 14 82 18 185 18 152 0 213 -15 267 -64
l31 -28 6 30 c3 16 6 78 6 138 l0 109 -425 0 -425 0 0 -604z"/>
<path d="M1280 2020 c-9 -6 -10 -10 -3 -10 6 0 15 5 18 10 8 12 4 12 -15 0z"/>
<path d="M1580 1860 c-6 -11 -8 -20 -6 -20 3 0 10 9 16 20 6 11 8 20 6 20 -3
0 -10 -9 -16 -20z"/>
<path d="M3262 1815 c0 -16 2 -22 5 -12 2 9 2 23 0 30 -3 6 -5 -1 -5 -18z"/>
<path d="M1540 1790 c-6 -11 -8 -20 -6 -20 3 0 10 9 16 20 6 11 8 20 6 20 -3
0 -10 -9 -16 -20z"/>
<path d="M3525 1708 l-50 -53 53 50 c28 27 52 51 52 52 0 8 -9 -1 -55 -49z"/>
<path d="M1470 1670 c-6 -11 -8 -20 -6 -20 3 0 10 9 16 20 6 11 8 20 6 20 -3
0 -10 -9 -16 -20z"/>
<path d="M3262 1640 c0 -19 2 -27 5 -17 2 9 2 25 0 35 -3 9 -5 1 -5 -18z"/>
<path d="M1430 1600 c-6 -11 -8 -20 -6 -20 3 0 10 9 16 20 6 11 8 20 6 20 -3
0 -10 -9 -16 -20z"/>
<path d="M3271 1564 c0 -11 3 -14 6 -6 3 7 2 16 -1 19 -3 4 -6 -2 -5 -13z"/>
<path d="M3350 1535 c-24 -25 -42 -45 -39 -45 3 0 25 20 49 45 24 25 42 45 39
45 -3 0 -25 -20 -49 -45z"/>
<path d="M3668 1173 c7 -3 16 -2 19 1 4 3 -2 6 -13 5 -11 0 -14 -3 -6 -6z"/>
<path d="M3738 1163 c7 -3 16 -2 19 1 4 3 -2 6 -13 5 -11 0 -14 -3 -6 -6z"/>
<path d="M4489 1073 l-34 -38 38 34 c20 19 37 36 37 38 0 8 -8 0 -41 -34z"/>
<path d="M4414 1008 l-19 -23 23 19 c21 18 27 26 19 26 -2 0 -12 -10 -23 -22z"/>
<path d="M3758 813 c6 -2 18 -2 25 0 6 3 1 5 -13 5 -14 0 -19 -2 -12 -5z"/>
<path d="M3908 813 c6 -2 18 -2 25 0 6 3 1 5 -13 5 -14 0 -19 -2 -12 -5z"/>
</g>
</svg>
